<?xml version="1.0" encoding="UTF-8" standalone="no"?>
<svg
   xmlns:dc="http://purl.org/dc/elements/1.1/"
   xmlns:cc="http://creativecommons.org/ns#"
   xmlns:rdf="http://www.w3.org/1999/02/22-rdf-syntax-ns#"
   xmlns:svg="http://www.w3.org/2000/svg"
   xmlns="http://www.w3.org/2000/svg"
   xmlns:sodipodi="http://sodipodi.sourceforge.net/DTD/sodipodi-0.dtd"
   xmlns:inkscape="http://www.inkscape.org/namespaces/inkscape"
   width="461.25pt"
   height="123.75pt"
   viewBox="0 0 461.25 123.75"
   version="1.1"
   id="svg127"
   sodipodi:docname="logo.svg"
   inkscape:version="0.92.4 (5da689c313, 2019-01-14)"
   inkscape:export-filename="/home/matklad/bitmap.png"
   inkscape:export-xdpi="384"
   inkscape:export-ydpi="384">
  <metadata
     id="metadata131">
    <rdf:RDF>
      <cc:Work
         rdf:about="">
        <dc:format>image/svg+xml</dc:format>
        <dc:type
           rdf:resource="http://purl.org/dc/dcmitype/StillImage" />
        <dc:title />
      </cc:Work>
    </rdf:RDF>
  </metadata>
  <sodipodi:namedview
     pagecolor="#ffffff"
     bordercolor="#666666"
     borderopacity="1"
     objecttolerance="10"
     gridtolerance="10"
     guidetolerance="10"
     inkscape:pageopacity="0"
     inkscape:pageshadow="2"
     inkscape:window-width="3840"
     inkscape:window-height="2130"
     id="namedview129"
     showgrid="true"
     inkscape:zoom="4.2579365"
     inkscape:cx="268.99534"
     inkscape:cy="79.93911"
     inkscape:window-x="0"
     inkscape:window-y="30"
     inkscape:window-maximized="1"
     inkscape:current-layer="surface1"
     fit-margin-top="0"
     fit-margin-left="0"
     fit-margin-right="0"
     fit-margin-bottom="0">
    <inkscape:grid
       type="xygrid"
       id="grid133"
       originx="-60"
       originy="-75" />
  </sodipodi:namedview>
  <defs
     id="defs84">
    <clipPath
       id="clip1">
      <path
         d="M 0,0.535156 H 566.92969 V 284 H 0 Z m 0,0"
         id="path81"
         inkscape:connector-curvature="0" />
    </clipPath>
  </defs>
  <g
     id="surface1"
     transform="translate(-60.000001,-85.250001)">
    <g
       clip-path="url(#clip1)"
       id="g88"
       transform="matrix(0.81359297,0,0,0.43656208,60.000001,85.016372)"
       style="clip-rule:nonzero"
       inkscape:export-xdpi="384"
       inkscape:export-ydpi="384">
      <path
         style="fill:#ffffff;fill-opacity:1;fill-rule:nonzero;stroke:none"
         d="M 566.92969,284 H 0 V 0.535156 H 566.92969 V 284"
         id="path86"
         inkscape:connector-curvature="0" />
    </g>
    <path
       style="fill:#383335;fill-opacity:1;fill-rule:nonzero;stroke:none"
       d="M 75.000001,116.5 H 127 c 2.21094,0 4,-1.79297 4,-4 v -12 c 0,-2.210934 -1.78906,-3.999997 -4,-3.999997 H 75.000001 c -2.210938,0 -4,1.789063 -4,3.999997 v 12 c 0,2.20703 1.789062,4 4,4"
       id="path90"
       inkscape:connector-curvature="0" />
    <path
       style="fill:#383335;fill-opacity:1;fill-rule:nonzero;stroke:none"
       d="m 75.000001,156.5 h 12 c 2.210938,0 4,-1.79297 4,-4 v -12 c 0,-2.21094 -1.789062,-4 -4,-4 h -12 c -2.210938,0 -4,1.78906 -4,4 v 12 c 0,2.20703 1.789062,4 4,4"
       id="path92"
       inkscape:connector-curvature="0" />
    <path
       style="fill:#383335;fill-opacity:1;fill-rule:nonzero;stroke:none"
       d="m 115,136.5 h 12 c 2.21094,0 4,-1.79297 4,-4 v -32 c 0,-2.210934 -1.78906,-3.999997 -4,-3.999997 h -12 c -2.21094,0 -4,1.789063 -4,3.999997 v 32 c 0,2.20703 1.78906,4 4,4"
       id="path94"
       inkscape:connector-curvature="0" />
    <path
       style="fill:#383335;fill-opacity:1;fill-rule:nonzero;stroke:none"
       d="m 115,196.5 h 12 c 2.21094,0 4,-1.79297 4,-4 v -32 c 0,-2.21094 -1.78906,-4 -4,-4 h -12 c -2.21094,0 -4,1.78906 -4,4 v 32 c 0,2.20703 1.78906,4 4,4"
       id="path96"
       inkscape:connector-curvature="0" />
    <path
       style="fill:#383335;fill-opacity:1;fill-rule:nonzero;stroke:none"
       d="m 186.25,129 h -2.84765 c -2,0 -2.60157,1.19922 -2.60157,3.19922 v 3.35156 h 5.89844 v 5.14844 h -5.89844 v 17.65234 H 174.75 v -17.65234 h -3.60156 v -4.64844 l 3.60156,-0.5 v -3.40234 c 0,-5.39844 2.69922,-8.30078 8.30078,-8.30078 H 186.25 V 129"
       id="path98"
       inkscape:connector-curvature="0" />
    <path
       style="fill:#383335;fill-opacity:1;fill-rule:nonzero;stroke:none"
       d="m 204.25,144.60156 c 0.0508,-0.30078 0.10156,-0.60156 0.10156,-0.75 0,-2.70312 -1.90234,-3.95312 -4.05078,-3.95312 -3,0 -4.30078,2.10156 -4.44922,4.70312 z m 2.30078,7.04688 2.85157,3.95312 c -1.75,1.75 -4.80079,3.29688 -8.45313,3.29688 -7.89844,0 -11.25,-5 -11.25,-11.94922 0,-6.44922 3.55078,-11.89844 10.60156,-11.89844 7,0 9.64844,4.94922 9.64844,9.89844 0,1.25 -0.14844,3 -0.39844,3.94922 h -13.75 c 0.14844,3 1.84766,4.85156 5.14844,4.85156 1.85156,0 3.90234,-0.69922 5.60156,-2.10156"
       id="path100"
       inkscape:connector-curvature="0" />
    <path
       style="fill:#383335;fill-opacity:1;fill-rule:nonzero;stroke:none"
       d="m 221.14844,139.14844 c 1.15234,-2.05078 2.90234,-4.09766 6.10156,-4.09766 0.94922,0 1.85156,0.0977 2.60156,0.29688 l -0.45312,6.40234 c -1.04688,-0.25 -2.54688,-0.44922 -3.64844,-0.44922 -2,0 -3.55078,1.09766 -4.40234,2.69922 v 14.35156 h -6.04688 v -22.80078 h 5.79688 v 3.59766 h 0.0508"
       id="path102"
       inkscape:connector-curvature="0" />
    <path
       style="fill:#383335;fill-opacity:1;fill-rule:nonzero;stroke:none"
       d="m 239.94922,139.14844 c 1.14844,-2.05078 2.89844,-4.09766 6.10156,-4.09766 0.94922,0 1.84766,0.0977 2.59766,0.29688 l -0.44922,6.40234 c -1.05078,-0.25 -2.55078,-0.44922 -3.64844,-0.44922 -2,0 -3.55078,1.09766 -4.40234,2.69922 v 14.35156 h -6.05078 v -22.80078 h 5.80078 v 3.59766 h 0.0508"
       id="path104"
       inkscape:connector-curvature="0" />
    <path
       style="fill:#383335;fill-opacity:1;fill-rule:nonzero;stroke:none"
       d="m 266.85156,147 c 0,-4.30078 -1.45312,-6.5 -4.65234,-6.5 -3.10156,0 -4.55078,2.19922 -4.55078,6.39844 0,4.40234 1.5,6.55078 4.60156,6.55078 3.14844,0 4.60156,-2.30078 4.60156,-6.44922 z m 6.19922,-0.10156 c 0,7 -3.40234,12 -10.90234,12 C 255,158.89844 251.5,153.80078 251.5,147 c 0,-6.94922 3.34766,-11.94922 10.84766,-11.94922 7.20312,0 10.70312,5 10.70312,11.84766"
       id="path106"
       inkscape:connector-curvature="0" />
    <path
       style="fill:#383335;fill-opacity:1;fill-rule:nonzero;stroke:none"
       d="M 298.84766,158.35156 H 293 V 155.75 c -1.19922,1.69922 -3.40234,3.10156 -7.05078,3.10156 -5.15234,0 -7.80078,-3.15234 -7.80078,-9.05078 v -14.25 h 6.09766 v 13.55078 c 0,2.75 1.05078,4.19922 4.10156,4.19922 1.75,0 3.55078,-0.85156 4.45312,-1.69922 v -16.05078 h 6.04688 v 22.80078"
       id="path108"
       inkscape:connector-curvature="0" />
    <path
       style="fill:#383335;fill-opacity:1;fill-rule:nonzero;stroke:none"
       d="m 319.04688,141.94922 c -1.34766,-1.34766 -3.25,-2.34766 -5.5,-2.34766 -2.09766,0 -3.09766,1 -3.09766,2.19922 0,1.05078 0.64844,1.84766 2.09766,2.14844 l 3.80078,0.90234 c 4.55078,1 6.5,3.44922 6.5,6.75 0,3.59766 -2.44922,7.29688 -9.89844,7.29688 -4.90234,0 -7.85156,-2.04688 -9.30078,-3.84766 l 3.44922,-3.60156 c 1.30078,1.40234 3.25,2.94922 6.10156,2.94922 2.04688,0 3.5,-0.75 3.5,-2.25 0,-1 -0.75,-1.79688 -2.30078,-2.14844 l -3.94922,-0.94922 c -4.00391,-1 -6.00391,-3.35156 -6.00391,-6.65234 0,-3.29688 2.45313,-7.34766 9.35157,-7.34766 4.5,0 7.10156,1.69922 8.60156,3.34766 l -3.35156,3.55078"
       id="path110"
       inkscape:connector-curvature="0" />
    <path
       style="fill:#383335;fill-opacity:1;fill-rule:nonzero;stroke:none"
       d="m 352.44531,141.94922 c -1.34765,-1.34766 -3.25,-2.34766 -5.5,-2.34766 -2.09765,0 -3.09765,1 -3.09765,2.19922 0,1.05078 0.64844,1.84766 2.09765,2.14844 l 3.80079,0.90234 c 4.55078,1 6.5,3.44922 6.5,6.75 0,3.59766 -2.44922,7.29688 -9.89844,7.29688 -4.90235,0 -7.85156,-2.04688 -9.30078,-3.84766 l 3.44922,-3.60156 c 1.30078,1.40234 3.25,2.94922 6.10156,2.94922 2.05078,0 3.5,-0.75 3.5,-2.25 0,-1 -0.75,-1.79688 -2.30078,-2.14844 l -3.94922,-0.94922 c -4,-1 -6,-3.35156 -6,-6.65234 0,-3.29688 2.44922,-7.34766 9.34765,-7.34766 4.5,0 7.10157,1.69922 8.60157,3.34766 l -3.35157,3.55078"
       id="path112"
       inkscape:connector-curvature="0" />
    <path
       style="fill:#383335;fill-opacity:1;fill-rule:nonzero;stroke:none"
       d="m 370.94531,150.39844 5.10157,-14.84766 h 6.5 l -13.35157,33.60157 h -6.14843 l 4.89843,-11.80079 -9.34765,-21.80078 h 6.79687 l 5.55078,14.84766"
       id="path114"
       inkscape:connector-curvature="0" />
    <path
       style="fill:#383335;fill-opacity:1;fill-rule:nonzero;stroke:none"
       d="m 399.84766,141.94922 c -1.35156,-1.34766 -3.25,-2.34766 -5.5,-2.34766 -2.10156,0 -3.10156,1 -3.10156,2.19922 0,1.05078 0.64843,1.84766 2.10156,2.14844 l 3.80078,0.90234 c 4.54687,1 6.5,3.44922 6.5,6.75 0,3.59766 -2.45313,7.29688 -9.90234,7.29688 -4.89844,0 -7.85157,-2.04688 -9.30079,-3.84766 l 3.44922,-3.60156 c 1.30078,1.40234 3.25,2.94922 6.10157,2.94922 2.05078,0 3.5,-0.75 3.5,-2.25 0,-1 -0.75,-1.79688 -2.30079,-2.14844 l -3.94921,-0.94922 c -4,-1 -6,-3.35156 -6,-6.65234 0,-3.29688 2.44921,-7.34766 9.35156,-7.34766 4.5,0 7.09765,1.69922 8.59765,3.34766 l -3.34765,3.55078"
       id="path116"
       inkscape:connector-curvature="0" />
    <path
       style="fill:#383335;fill-opacity:1;fill-rule:nonzero;stroke:none"
       d="m 417.09766,150.85156 c 0,1.69922 0.89844,2.44922 2.5,2.44922 0.79687,0 1.84765,-0.15234 2.69922,-0.40234 l 0.0976,5.25 c -1.14843,0.45312 -3.14843,0.75 -4.84765,0.75 -4.69922,0 -6.5,-3.04688 -6.5,-7.19922 v -11.05078 h -4.15235 v -4.59766 l 4.15235,-0.5 V 130 l 6.05078,-0.94922 v 6.5 h 5.09765 v 5.09766 h -5.09765 v 10.20312"
       id="path118"
       inkscape:connector-curvature="0" />
    <path
       style="fill:#383335;fill-opacity:1;fill-rule:nonzero;stroke:none"
       d="m 440.94531,144.60156 c 0.0508,-0.30078 0.10157,-0.60156 0.10157,-0.75 0,-2.70312 -1.90235,-3.95312 -4.05078,-3.95312 -3,0 -4.30079,2.10156 -4.44922,4.70312 z m 2.30079,7.04688 2.85156,3.95312 c -1.75,1.75 -4.80078,3.29688 -8.45313,3.29688 -7.89843,0 -11.25,-5 -11.25,-11.94922 0,-6.44922 3.55078,-11.89844 10.60157,-11.89844 7,0 9.64843,4.94922 9.64843,9.89844 0,1.25 -0.14843,3 -0.39843,3.94922 h -13.75 c 0.14843,3 1.85156,4.85156 5.14843,4.85156 1.85157,0 3.90235,-0.69922 5.60157,-2.10156"
       id="path120"
       inkscape:connector-curvature="0" />
    <path
       style="fill:#383335;fill-opacity:1;fill-rule:nonzero;stroke:none"
       d="m 451.99219,135.55078 h 5.85156 v 2.59766 c 1.25,-1.5 3.20313,-3.09766 6.40235,-3.09766 3.64843,0 5.55078,1.39844 6.94921,3.34766 1.25,-1.59766 3.90235,-3.34766 7.90235,-3.34766 5.75,0 8.14844,3 8.14844,8.55078 v 14.75 h -6.10157 v -14.25 c 0,-2.20312 -1,-3.5 -3.79687,-3.5 -2.05078,0 -3.65235,0.79688 -4.60156,1.69922 v 16.05078 h -6.05079 v -15.55078 c -0.75,-1.25 -2.05078,-2.19922 -4.19921,-2.19922 -1.90235,0 -3.30079,0.79688 -4.44922,1.69922 v 16.05078 h -6.05469 v -22.80078"
       id="path122"
       inkscape:connector-curvature="0" />
    <path
       style="fill:#383335;fill-opacity:1;fill-rule:nonzero;stroke:none"
       d="m 507.29688,141.94922 c -1.35157,-1.34766 -3.25,-2.34766 -5.5,-2.34766 -2.10157,0 -3.10157,1 -3.10157,2.19922 0,1.05078 0.64844,1.84766 2.10157,2.14844 l 3.79687,0.90234 c 4.55078,1 6.5,3.44922 6.5,6.75 0,3.59766 -2.44922,7.29688 -9.89844,7.29688 -4.90234,0 -7.85156,-2.04688 -9.30078,-3.84766 l 3.44922,-3.60156 c 1.30078,1.40234 3.25,2.94922 6.10156,2.94922 2.05079,0 3.5,-0.75 3.5,-2.25 0,-1 -0.75,-1.79688 -2.30078,-2.14844 l -3.94922,-0.94922 c -4,-1 -6,-3.35156 -6,-6.65234 0,-3.29688 2.44922,-7.34766 9.35157,-7.34766 4.5,0 7.09765,1.69922 8.59765,3.34766 l -3.34765,3.55078"
       id="path124"
       inkscape:connector-curvature="0" />
  </g>
</svg>
